PathFileType	4	(X/Y/Z)	C:\Users\86182\Documents\cortex\Trimmed_M4_L4.trc
DataRate	CameraRate	NumFrames	NumMarkers	Units	OrigDataRate	OrigDataStartFrame	OrigNumFrames
100.00	100.00	       113	2	mm	100.00	181	       901
Frame#	Time	gripper			box			
		X1	Y1	Z1	X2	Y2	Z2	

181	1.800	279.12393	150.03053	212.21187	278.76382	148.21893	77.81989	
182	1.810	279.16260	150.01968	212.64227	278.80258	148.20454	78.25282	
183	1.820	279.17758	150.01373	213.08418	278.84619	148.19043	78.68779	
184	1.830	279.15912	150.01411	213.54028	278.89069	148.17799	79.12148	
185	1.840	279.11276	150.01888	214.00648	278.92950	148.16888	79.55103	
186	1.850	279.07858	150.01973	214.46295	278.95575	148.16383	79.97554	
187	1.860	279.10059	150.00858	214.88739	278.96680	148.16226	80.39639	
188	1.870	279.17920	149.98625	215.27756	278.96613	148.16338	80.81599	
189	1.880	279.27365	149.96059	215.65248	278.95786	148.16754	81.23602	
190	1.890	279.34949	149.93605	216.03064	278.94095	148.17532	81.65613	
191	1.900	279.40170	149.90996	216.41595	278.91138	148.18599	82.07413	
192	1.910	279.42819	149.88013	216.80798	278.86993	148.19759	82.48788	
193	1.920	279.40811	149.85133	217.21442	278.82465	148.20776	82.89686	
194	1.930	279.32330	149.83060	217.64488	278.78427	148.21455	83.30325	
195	1.940	279.18729	149.81903	218.09821	278.75208	148.21715	83.71133	
196	1.950	279.04123	149.81129	218.56229	278.72720	148.21609	84.12427	
197	1.960	278.91956	149.80301	219.02609	278.70929	148.21291	84.54189	
198	1.970	278.82446	149.79678	219.48849	278.69971	148.20964	84.96254	
199	1.980	278.74246	149.79788	219.95293	278.69980	148.20813	85.38638	
200	1.990	278.67151	149.80739	220.41949	278.70898	148.20914	85.81612	
201	2.000	278.61353	149.82384	220.88826	278.72467	148.21292	86.25399	
202	2.010	278.55905	149.84663	221.36217	278.74371	148.21970	86.69756	
203	2.020	278.50452	149.87320	221.83887	278.76328	148.22890	87.14075	
204	2.030	278.47375	149.89636	222.30457	278.78119	148.23878	87.57964	
205	2.040	278.49808	149.90907	222.74442	278.79639	148.24748	88.01479	
206	2.050	278.57446	149.91096	223.15865	278.80923	148.25407	88.44775	
207	2.060	278.66409	149.90776	223.56189	278.82031	148.25839	88.87727	
208	2.070	278.73334	149.90492	223.96680	278.82834	148.26012	89.29975	
209	2.080	278.77487	149.90465	224.37607	278.82990	148.25917	89.71326	
210	2.090	278.78735	149.90910	224.79105	278.82178	148.25636	90.11990	
211	2.100	278.76260	149.92113	225.21710	278.80457	148.25320	90.52543	
212	2.110	278.70932	149.93842	225.65347	278.78333	148.25113	90.93660	
213	2.120	278.66962	149.95142	226.08588	278.76385	148.25099	91.35760	
214	2.130	278.68619	149.95210	226.49948	278.74817	148.25301	91.78770	
215	2.140	278.75714	149.94305	226.89696	278.73483	148.25708	92.22263	
216	2.150	278.84271	149.93382	227.29529	278.72330	148.26303	92.65842	
217	2.160	278.91385	149.93005	227.70563	278.71609	148.27081	93.09384	
218	2.170	278.97189	149.93095	228.12538	278.71539	148.28036	93.52948	
219	2.180	279.01938	149.93634	228.55006	278.71915	148.29108	93.96577	
220	2.190	279.03989	149.94987	228.98187	278.72205	148.30200	94.40170	
221	2.200	279.01917	149.97385	229.42308	278.71994	148.31281	94.83455	
222	2.210	278.96152	150.00554	229.87082	278.71216	148.32411	95.26166	
223	2.220	278.86566	150.04251	230.32571	278.70001	148.33615	95.68340	
224	2.230	278.70480	150.08864	230.79897	278.68451	148.34752	96.10303	
225	2.240	278.44818	150.15073	231.30386	278.66626	148.35623	96.52248	
226	2.250	278.09720	150.22984	231.84184	278.64606	148.36168	96.93931	
227	2.260	277.69861	150.31720	232.39645	278.62448	148.36470	97.34970	
228	2.270	277.32483	150.39883	232.94102	278.60126	148.36613	97.75395	
229	2.280	277.03891	150.46310	233.45343	278.57745	148.36618	98.15726	
230	2.290	276.87717	150.50375	233.92285	278.55811	148.36496	98.56509	
231	2.300	276.85294	150.51865	234.34680	278.55032	148.36304	98.97914	
232	2.310	276.96313	150.50827	234.72810	278.55856	148.36099	99.39764	
233	2.320	277.19043	150.47591	235.07465	278.58163	148.35966	99.81915	
234	2.330	277.49966	150.42891	235.40038	278.61459	148.36050	100.24527	
235	2.340	277.83710	150.37840	235.72475	278.65210	148.36482	100.67947	
236	2.350	278.14334	150.33577	236.06815	278.69034	148.37315	101.12352	
237	2.360	278.36566	150.31073	236.44815	278.72610	148.38606	101.57532	
238	2.370	278.45963	150.31235	236.87883	278.75494	148.40468	102.03088	
239	2.380	278.40332	150.34604	237.36522	278.77057	148.42973	102.48818	
240	2.390	278.21307	150.40848	237.89734	278.76797	148.46065	102.94719	
241	2.400	277.93253	150.48907	238.45508	278.74734	148.49586	103.40668	
242	2.410	277.61258	150.57556	239.01736	278.71246	148.53308	103.86300	
243	2.420	277.30237	150.65730	239.56601	278.66522	148.56888	104.31261	
244	2.430	277.03909	150.72704	240.08824	278.60458	148.60007	104.75446	
245	2.440	276.83899	150.78160	240.57861	278.53165	148.62561	105.18978	
246	2.450	276.70071	150.82103	241.03841	278.45218	148.64645	105.62067	
247	2.460	276.61377	150.84753	241.47360	278.37305	148.66298	106.04967	
248	2.470	276.56485	150.86470	241.89224	278.29773	148.67349	106.47905	
249	2.480	276.54227	150.87617	242.30215	278.22726	148.67543	106.90927	
250	2.490	276.53815	150.88387	242.70999	278.16449	148.66823	107.33897	
251	2.500	276.54767	150.88727	243.12079	278.11502	148.65479	107.76666	
252	2.510	276.56738	150.88509	243.53751	278.08417	148.63968	108.19263	
253	2.520	276.59442	150.87787	243.96149	278.07303	148.62556	108.61926	
254	2.530	276.62552	150.86815	244.39314	278.07846	148.61134	109.04901	
255	2.540	276.65686	150.85780	244.83093	278.09552	148.59499	109.48226	
256	2.550	276.68573	150.84662	245.27112	278.11966	148.57759	109.91842	
257	2.560	276.71100	150.83350	245.71078	278.14594	148.56274	110.35806	
258	2.570	276.73016	150.81850	246.14937	278.16873	148.55258	110.80188	
259	2.580	276.73721	150.80272	246.58710	278.18414	148.54607	111.24749	
260	2.590	276.72632	150.78673	247.02371	278.19089	148.54068	111.68937	
261	2.600	276.69638	150.76987	247.45894	278.18842	148.53490	112.12323	
262	2.610	276.65146	150.75133	247.89236	278.17538	148.52937	112.54887	
263	2.620	276.59756	150.73193	248.32347	278.15125	148.52626	112.96854	
264	2.630	276.53989	150.71422	248.75226	278.11902	148.52689	113.38403	
265	2.640	276.48254	150.70042	249.17845	278.08444	148.53000	113.79541	
266	2.650	276.42874	150.69035	249.60005	278.05206	148.53314	114.20207	
267	2.660	276.38071	150.68178	250.01527	278.02280	148.53496	114.60542	
268	2.670	276.34109	150.67300	250.42563	277.99619	148.53580	115.00975	
269	2.680	276.31311	150.66461	250.83530	277.97321	148.53682	115.41938	
270	2.690	276.29675	150.65846	251.24760	277.95621	148.53900	115.83498	
271	2.700	276.28757	150.65576	251.66333	277.94598	148.54295	116.25366	
272	2.710	276.28143	150.65652	252.08220	277.94089	148.54890	116.67300	
273	2.720	276.27844	150.66008	252.50467	277.93848	148.55688	117.09418	
274	2.730	276.28128	150.66530	252.93219	277.93710	148.56688	117.51990	
275	2.740	276.29163	150.67093	253.36626	277.93604	148.57938	117.95102	
276	2.750	276.30811	150.67642	253.80649	277.93417	148.59537	118.38718	
277	2.760	276.32724	150.68222	254.24994	277.92892	148.61551	118.82880	
278	2.770	276.34634	150.68878	254.69318	277.91772	148.63928	119.27611	
279	2.780	276.36469	150.69617	255.13483	277.90128	148.66510	119.72711	
280	2.790	276.38171	150.70441	255.57472	277.88446	148.69142	120.17790	
281	2.800	276.39490	150.71375	256.01123	277.87253	148.71790	120.62422	
282	2.810	276.40082	150.72456	256.44177	277.86850	148.74483	121.06084	
283	2.820	276.39780	150.73674	256.86548	277.87622	148.77100	121.48061	
284	2.830	276.38760	150.74918	257.28369	277.90454	148.79271	121.87690	
285	2.840	276.37448	150.75999	257.69824	277.96521	148.80525	122.24668	
286	2.850	276.36240	150.76758	258.11038	278.06509	148.80557	122.59161	
287	2.860	276.35275	150.77199	258.52057	278.19754	148.79457	122.91920	
288	2.870	276.34515	150.77530	258.92932	278.33694	148.77808	123.24479	
289	2.880	276.34027	150.77982	259.33856	278.44611	148.76466	123.58865	
290	2.890	276.34070	150.78593	259.75162	278.50403	148.75978	123.96295	
291	2.900	276.34839	150.79201	260.17108	278.52057	148.76189	124.36564	
292	2.910	276.36240	150.79660	260.59729	278.50656	148.76784	124.79616	
293	2.920	276.37979	150.79993	261.02911	278.44910	148.77957	125.26513	
